<?xml version="1.0" standalone="no"?>
<!DOCTYPE svg PUBLIC "-//W3C//DTD SVG 20010904//EN"
 "http://www.w3.org/TR/2001/REC-SVG-20010904/DTD/svg10.dtd">
<svg version="1.0" xmlns="http://www.w3.org/2000/svg"
 width="666.000000pt" height="375.000000pt" viewBox="0 0 666.000000 375.000000"
 preserveAspectRatio="xMidYMid meet">

<g transform="translate(0.000000,375.000000) scale(0.100000,-0.100000)"
fill="#000000" stroke="none">
<path d="M2824 3689 c-372 -36 -711 -179 -1001 -423 -442 -370 -689 -955 -643
-1522 20 -260 76 -459 195 -699 114 -230 239 -391 433 -559 372 -321 831 -472
1332 -436 318 23 604 118 870 291 339 220 601 560 730 947 208 625 73 1300
-358 1788 -393 446 -965 671 -1558 613z m258 -469 c217 -21 435 -111 598 -249
37 -32 36 -55 -2 -27 -80 58 -203 134 -264 162 -316 147 -697 116 -999 -80
-192 -125 -327 -295 -414 -520 -48 -125 -70 -229 -77 -366 -5 -89 -2 -124 20
-231 36 -173 86 -293 179 -429 80 -116 258 -271 382 -332 161 -79 175 -83 340
-106 87 -12 130 -22 133 -31 4 -12 -9 -13 -70 -8 -246 21 -497 137 -671 311
-40 39 -79 80 -87 91 -8 11 -29 38 -46 60 -17 22 -33 45 -35 50 -2 6 -21 40
-42 76 -137 241 -165 594 -71 877 53 159 154 320 275 442 189 189 426 293 729
319 8 0 63 -4 122 -9z m145 -105 c54 -14 134 -43 178 -65 100 -49 209 -119
201 -127 -3 -4 -34 13 -68 37 -142 100 -310 157 -490 167 -62 3 -108 10 -108
16 0 17 179 -1 287 -28z m-437 1 c0 -3 -39 -17 -87 -31 -49 -15 -123 -45 -167
-66 -43 -22 -81 -38 -83 -36 -10 11 142 84 262 125 31 11 75 15 75 8z m1236
-336 c-7 -151 -17 -217 -57 -380 -51 -204 -82 -274 -159 -351 -106 -107 -221
-173 -353 -204 -76 -18 -217 -19 -289 -3 l-53 12 106 8 c116 8 257 47 363 100
76 38 65 48 -19 14 -114 -45 -206 -67 -319 -73 -99 -6 -109 -5 -103 10 10 25
130 204 146 217 3 3 23 26 43 51 l37 46 108 6 c118 6 192 26 290 75 82 42 90
58 10 22 -87 -39 -175 -61 -281 -67 l-90 -6 22 31 c12 17 83 88 158 159 114
108 142 129 177 136 67 13 168 39 165 43 -2 1 -36 -2 -76 -8 -39 -6 -75 -9
-78 -5 -4 3 16 31 42 61 52 57 138 194 149 236 4 14 -16 -9 -43 -50 -28 -41
-80 -106 -117 -145 l-66 -70 6 45 c8 57 -9 36 -25 -32 -11 -42 -24 -57 -145
-167 -74 -67 -137 -121 -141 -121 -13 0 5 145 25 203 23 67 20 74 -9 17 -26
-51 -50 -152 -50 -213 0 -45 -4 -52 -93 -155 -51 -59 -102 -120 -113 -136
l-21 -29 -14 39 c-8 23 -13 83 -13 149 0 95 4 120 26 180 15 38 25 71 23 73
-7 8 -54 -96 -69 -155 -20 -77 -20 -152 0 -252 l16 -80 -33 -55 c-19 -31 -37
-56 -40 -56 -3 0 -16 33 -29 73 -24 76 -48 153 -56 176 -2 8 -7 12 -10 9 -6
-6 40 -194 62 -253 15 -40 15 -41 -29 -135 -24 -52 -49 -116 -57 -142 -7 -27
-16 -48 -21 -48 -4 0 -20 31 -36 70 -15 38 -31 70 -34 70 -11 0 25 -139 47
-181 11 -22 11 -39 1 -100 -7 -41 -16 -69 -19 -63 -10 15 -44 175 -53 244 -34
256 54 594 211 810 41 57 144 156 207 199 71 48 198 105 349 157 178 61 318
141 393 224 l20 22 8 -63 c4 -35 6 -120 3 -189z m-1706 94 c0 -4 -29 -37 -64
-74 -35 -37 -79 -93 -97 -124 -19 -31 -37 -56 -42 -56 -4 0 -5 6 -1 13 68 116
204 276 204 241z m27 -302 c138 -111 252 -259 308 -403 28 -71 29 -72 16 -65
-18 11 -22 -51 -7 -89 18 -42 21 -85 7 -85 -5 0 -16 -3 -25 -6 -11 -4 -16 -1
-16 10 0 10 -8 16 -21 16 -16 0 -19 4 -14 23 4 13 3 17 -2 10 -16 -22 -30 2
-61 102 -27 89 -29 107 -21 161 4 34 4 73 -1 90 -8 27 -8 26 -10 -16 -3 -88
-13 -87 -49 2 -33 80 -99 208 -107 208 -2 0 6 -24 18 -52 62 -153 167 -493
155 -504 -6 -7 -100 59 -177 123 -43 37 -43 37 -23 8 31 -44 110 -116 176
-160 53 -35 57 -41 68 -93 6 -31 12 -61 14 -67 1 -5 0 -6 -3 -1 -2 4 -8 2 -13
-5 -6 -10 -9 -11 -9 -1 0 6 -7 12 -15 12 -8 0 -14 -4 -12 -9 1 -5 -2 -9 -8 -9
-5 0 -9 4 -8 9 4 12 -14 11 -22 -1 -3 -5 -13 -10 -21 -10 -8 0 -12 4 -9 10 3
5 -15 15 -40 21 -33 8 -62 27 -101 63 -30 29 -54 58 -54 64 0 7 -5 12 -10 12
-7 0 -7 -7 0 -21 6 -11 9 -28 7 -37 -4 -13 -5 -11 -6 5 0 12 -8 29 -17 38 -14
14 -15 17 -2 28 9 7 18 21 22 32 6 20 6 20 -9 1 -8 -11 -15 -14 -15 -7 0 7 -4
9 -10 6 -15 -9 -1 198 20 300 31 147 40 205 40 267 0 32 4 58 9 58 5 0 31 -17
58 -38z m-296 -124 c-41 -119 -56 -210 -55 -338 1 -197 48 -371 143 -530 22
-36 37 -67 34 -70 -13 -13 -113 176 -144 273 -70 220 -64 502 15 692 24 57 29
37 7 -27z m2016 -185 c14 -67 8 -302 -10 -383 -65 -291 -266 -571 -523 -727
-107 -65 -283 -128 -378 -135 -74 -6 -46 17 42 34 125 24 263 83 380 162 188
126 325 301 410 524 51 133 65 233 59 410 -4 146 4 193 20 115z m-70 -229 c-5
-87 -11 -115 -20 -103 -9 10 6 199 16 199 6 0 8 -33 4 -96z m-1318 39 c-1 -5
-1 -10 1 -13 7 -21 7 -61 0 -54 -15 15 -24 74 -11 74 6 0 10 -3 10 -7z m-59
-155 c0 -19 -2 -20 -10 -8 -13 19 -13 30 0 30 6 0 10 -10 10 -22z m1320 -153
c-7 -25 -17 -48 -21 -51 -13 -8 -11 6 7 60 20 59 31 52 14 -9z m-1355 -15 c-3
-5 -12 -10 -18 -10 -7 0 -6 4 3 10 19 12 23 12 15 0z m68 -132 c23 -27 22 -46
-1 -25 -10 10 -24 17 -30 17 -7 0 -12 4 -12 8 0 5 -12 13 -27 19 -26 11 -25
11 12 6 22 -3 48 -14 58 -25z m1197 -45 c-30 -53 -49 -77 -55 -71 -8 7 55 108
67 108 5 0 0 -17 -12 -37z m-1519 -220 c101 -96 229 -169 369 -213 41 -13 69
-25 63 -27 -21 -7 -141 36 -234 83 -111 57 -294 204 -254 204 3 0 29 -21 56
-47z m1378 40 c-1 -13 -89 -86 -95 -80 -3 3 14 23 38 46 41 39 59 49 57 34z
m-199 -153 c0 -26 -258 -136 -298 -128 -10 2 15 14 53 26 39 13 108 42 155 66
47 24 86 44 88 45 1 0 2 -3 2 -9z m-950 -460 l0 -100 26 16 c35 23 81 20 111
-7 22 -22 24 -29 21 -118 -2 -64 -7 -96 -15 -99 -10 -3 -13 19 -13 86 0 69 -4
94 -16 106 -21 21 -57 20 -85 -3 -20 -16 -24 -30 -29 -102 -4 -66 -8 -84 -20
-84 -13 0 -15 30 -18 203 -2 197 -2 202 18 202 19 0 20 -6 20 -100z m-190 45
c34 -18 80 -64 80 -81 0 -21 -28 -17 -42 7 -7 11 -30 29 -50 40 -114 58 -236
-38 -212 -167 13 -71 104 -132 175 -117 15 3 46 21 69 40 54 47 82 41 41 -8
-111 -134 -321 -58 -321 116 0 138 142 231 260 170z m1101 10 c49 -17 84 -47
105 -87 17 -34 17 -38 0 -38 -7 0 -26 16 -40 35 -35 45 -74 65 -128 65 -180 0
-203 -267 -27 -305 44 -10 110 14 146 52 18 19 33 38 33 43 0 5 -32 10 -72 12
-46 2 -73 7 -76 16 -3 9 20 12 93 12 84 0 96 -2 91 -16 -3 -9 -6 -22 -6 -30 0
-22 -71 -96 -107 -111 -95 -39 -199 4 -244 102 -34 73 -18 150 42 207 59 56
116 69 190 43z m-323 -58 c2 -10 -3 -17 -12 -17 -18 0 -29 16 -21 31 9 14 29
6 33 -14z m-182 -88 c9 -15 24 -10 24 7 0 9 7 14 18 12 14 -3 17 -17 20 -97 4
-101 -2 -141 -19 -141 -6 0 -13 9 -16 20 -5 20 -5 20 -30 0 -58 -45 -151 -9
-172 66 -19 68 26 149 87 156 30 4 79 -9 88 -23z m874 8 c36 -17 62 -73 56
-122 -4 -30 -14 -49 -42 -74 -33 -30 -40 -33 -85 -29 -129 13 -160 176 -44
230 40 18 68 17 115 -5z m-690 -107 c0 -99 -3 -120 -15 -120 -16 0 -27 34 -21
65 3 11 5 55 5 98 1 61 4 77 16 77 13 0 15 -20 15 -120z"/>
<path d="M2232 2040 c0 -14 2 -19 5 -12 2 6 2 18 0 25 -3 6 -5 1 -5 -13z"/>
<path d="M2601 2033 c0 -4 4 -17 9 -28 8 -19 9 -19 9 2 1 12 -3 25 -9 28 -5 3
-10 3 -9 -2z"/>
<path d="M2631 2035 c-1 -5 6 -28 14 -50 11 -32 14 -35 14 -15 0 14 -6 36 -14
50 -8 14 -14 21 -14 15z"/>
<path d="M2610 1976 c0 -2 7 -6 15 -10 8 -3 15 -1 15 4 0 6 -7 10 -15 10 -8 0
-15 -2 -15 -4z"/>
<path d="M2260 1961 c0 -5 5 -13 10 -16 6 -3 10 -2 10 4 0 5 -4 13 -10 16 -5
3 -10 2 -10 -4z"/>
<path d="M2859 667 c-47 -36 -51 -97 -9 -139 26 -25 36 -29 63 -24 62 12 99
91 64 137 -28 37 -87 50 -118 26z"/>
<path d="M3735 668 c-32 -17 -45 -39 -45 -78 0 -60 57 -99 115 -80 60 20 77
99 30 145 -26 27 -66 32 -100 13z"/>
</g>
</svg>
